<svg width="1738" height="1735" xmlns="http://www.w3.org/2000/svg" xmlns:xlink="http://www.w3.org/1999/xlink" xml:space="preserve" overflow="hidden"><defs><clipPath id="clip0"><rect x="1331" y="370" width="1738" height="1735"/></clipPath><clipPath id="round"><circle cx="869" cy="867.5" r="867.5"/></clipPath></defs><g clip-path="url(#round)"><rect width="1738" height="1735" fill="#ffffff"/><g clip-path="url(#clip0)" transform="translate(-1331 -370)"><path d="M1845.9 629.484 1395.79 1212.82 1396.06 1212.82 1382.8 1230 1382.35 1230 1382.35 1230.57 1382.35 1259.16 1381.59 1259.16 1384.73 1321.32C1426.69 1734.6 1775.69 2057.11 2200 2057.11 2624.31 2057.11 2973.31 1734.6 3015.27 1321.32L3018.41 1259.16 2332.04 1259.16 2109.75 971.066 2109.61 971.243ZM1845.9 547 2359.66 1212.82 3067.83 1212.82 3069 1235.92C3069 1715.9 2679.94 2105 2200 2105 1720.06 2105 1331 1715.9 1331 1235.92L1332.17 1212.82 1332.15 1212.82Z" fill="#1E3D5F" fill-rule="evenodd"/><path d="M2419.99 1463.66 2622.5 1463.66C2643.99 1463.66 2662.29 1471.22 2677.4 1486.32 2692.51 1501.43 2700.06 1519.61 2700.06 1540.88 2700.06 1554.43 2696.77 1567.01 2690.19 1578.62 2683.61 1590.22 2675.41 1598.52 2665.58 1603.52 2675.48 1608.57 2683.71 1616.87 2690.25 1628.4 2696.79 1639.94 2700.06 1652.42 2700.06 1665.83 2700.06 1687.29 2692.5 1705.58 2677.38 1720.7 2662.25 1735.82 2643.96 1743.39 2622.5 1743.39L2419.99 1743.39 2419.99 1713.9 2622.5 1713.9C2635.56 1713.9 2646.78 1709.21 2656.16 1699.83 2665.54 1690.45 2670.23 1679.16 2670.23 1665.95 2670.23 1652.74 2665.56 1641.52 2656.22 1632.29 2646.88 1623.05 2635.64 1618.44 2622.5 1618.44L2419.99 1618.44 2419.99 1588.61C2429.59 1588.61 2439.91 1588.61 2450.95 1588.61 2461.99 1588.61 2480.43 1588.61 2506.26 1588.61 2532.09 1588.61 2553.65 1588.61 2570.95 1588.61 2605.31 1588.61 2622.5 1588.61 2622.5 1588.61 2635.6 1588.61 2646.84 1583.99 2656.19 1574.74 2665.55 1565.49 2670.23 1554.26 2670.23 1541.05 2670.23 1527.84 2665.55 1516.55 2656.19 1507.19 2646.82 1497.83 2635.59 1493.15 2622.5 1493.15L2419.99 1493.15ZM2036.99 1463.66 2070.55 1463.66 2194.07 1686.92 2317.59 1463.66 2350.86 1463.66 2194.07 1743.39ZM1765.55 1463.66 1968.06 1463.66 1968.06 1493.15 1765.55 1493.15C1752.42 1493.15 1741.18 1497.82 1731.84 1507.16 1722.5 1516.51 1717.82 1527.8 1717.82 1541.05 1717.82 1554.3 1722.49 1565.54 1731.83 1574.77 1741.17 1584 1752.41 1588.61 1765.55 1588.61L1890.5 1588.61C1911.99 1588.61 1930.3 1596.17 1945.4 1611.27 1960.51 1626.38 1968.06 1644.61 1968.06 1665.97 1968.06 1687.33 1960.5 1705.58 1945.38 1720.7 1930.25 1735.82 1911.96 1743.39 1890.5 1743.39L1687.99 1743.39 1687.99 1713.9 1890.5 1713.9C1903.56 1713.9 1914.78 1709.21 1924.16 1699.83 1933.54 1690.45 1938.23 1679.16 1938.23 1665.95 1938.23 1652.74 1933.56 1641.52 1924.22 1632.29 1914.88 1623.05 1903.64 1618.44 1890.5 1618.44L1765.55 1618.44C1744.05 1618.44 1725.75 1610.88 1710.65 1595.78 1695.54 1580.67 1687.99 1562.42 1687.99 1541.02 1687.99 1519.63 1695.53 1501.38 1710.62 1486.3 1725.71 1471.21 1744.02 1463.66 1765.55 1463.66Z" stroke="#1E3D5F" stroke-width="14" stroke-linejoin="round" stroke-miterlimit="10" fill="#1E3D5F" fill-rule="evenodd"/><text fill="#000000" fill-opacity="0" font-family="Arial,Arial_MSFontService,sans-serif" font-size="279.721" x="1687.99" y="1708.42">SVB</text><path d="M2744.77 991.028 2928.87 991.028 2937.58 1016C2951.09 1061.41 2960.52 1108.58 2965.45 1157.07L2966 1168 2881.38 1168ZM2496.89 991.028 2681.38 991.028 2755.08 1086.49 2754.8 1086.49 2817.72 1168 2633.5 1168ZM2250.61 991.028 2433.5 991.028 2507.19 1086.49 2506.92 1086.49 2569.84 1168 2387.22 1168ZM2573.24 768.825 2758.47 768.825 2895.4 946.205 2710.17 946.205ZM2325.36 768.825 2509.86 768.825 2646.78 946.205 2462.29 946.205ZM2079.08 768.825 2261.97 768.825 2398.9 946.205 2216.01 946.205ZM2402.01 547 2542.88 547 2546.01 548.403C2566.82 558.901 2587.09 570.317 2606.77 582.597L2623.73 594.275 2723.87 724.002 2538.64 724.002ZM2154.13 547 2338.62 547 2475.26 724.002 2290.76 724.002ZM1908 547 2090.74 547 2227.37 724.002 2044.48 724.002 1908 547.199Z" fill="#1E3D5F" fill-rule="evenodd"/><path d="M1555 701 1654 701 1654 828.541 1574.58 925 1555 925Z" fill="#1E3D5F" fill-rule="evenodd"/><path d="M2200.12 370C2650.28 370 3020.53 712.004 3065.05 1150.27L3066 1169 3016.4 1169 3015.79 1156.94C2973.8 743.635 2624.64 421.111 2200.12 421.111 1828.66 421.111 1514.9 668.044 1414.13 1006.66L1406.6 1037.14 1339 1124.7 1347.28 1069.28C1426.3 670.589 1778.09 370 2200.12 370Z" fill="#EBAA3B" fill-rule="evenodd"/><rect x="1731" y="1030" width="102" height="101" fill="#1E3D5F"/><rect x="1860" y="1030" width="101" height="101" fill="#1E3D5F"/><rect x="1731" y="1158" width="102" height="101" fill="#1E3D5F"/><rect x="1859" y="1158" width="101" height="101" fill="#1E3D5F"/></g></g></svg>